# xmcd CD database file
#
# Track frame offsets:
#	150
#	12212
#	26240
#
# Disc length: 484 seconds
#
# Revision: 2
# Processed by: cddbd v1.5.1PL0 Copyright (c) Steve Scherf et al.
# Submitted via: CDex 1.51
#
DISCID=1b01e203
DTITLE=Useless I.D. - Bonus CD
DYEAR=2002
DGENRE=Punk
TTITLE0=Crush
TTITLE1=Same Story, Someone New
TTITLE2=The Worst Holiday I Ever Had
EXTD=YEAR: 2002
EXTT0=
EXTT1=
EXTT2=
PLAYORDER=
